<svg xmlns="http://www.w3.org/2000/svg" viewBox="0 0 960 440" width="960" height="440" role="img" aria-label="Commits by month (UTC committer date), HyperlinksSpace">
<rect x="0" y="0" width="100%" height="100%" fill="#0d1117"/>
<text x="480" y="28" text-anchor="middle" fill="#e6edf3" font-family="system-ui,Segoe UI,Helvetica,Arial,sans-serif" font-size="16" font-weight="600">Commits by month (UTC committer date), HyperlinksSpace</text>
<line x1="54" y1="332" x2="932" y2="332" stroke="#8b949e" stroke-width="1.5"/>
<line x1="54" y1="48" x2="54" y2="332" stroke="#8b949e" stroke-width="1.5"/>
<text x="46" y="328" text-anchor="end" fill="#8b949e" font-family="system-ui,Segoe UI,Helvetica,Arial,sans-serif" font-size="12">0</text>
<line x1="54" y1="275.2" x2="932" y2="275.2" stroke="#21262d" stroke-width="1"/>
<text x="46" y="279.2" text-anchor="end" fill="#8b949e" font-family="system-ui,Segoe UI,Helvetica,Arial,sans-serif" font-size="12">60</text>
<line x1="54" y1="218.39999999999998" x2="932" y2="218.39999999999998" stroke="#21262d" stroke-width="1"/>
<text x="46" y="222.39999999999998" text-anchor="end" fill="#8b949e" font-family="system-ui,Segoe UI,Helvetica,Arial,sans-serif" font-size="12">120</text>
<line x1="54" y1="161.6" x2="932" y2="161.6" stroke="#21262d" stroke-width="1"/>
<text x="46" y="165.6" text-anchor="end" fill="#8b949e" font-family="system-ui,Segoe UI,Helvetica,Arial,sans-serif" font-size="12">180</text>
<line x1="54" y1="104.79999999999998" x2="932" y2="104.79999999999998" stroke="#21262d" stroke-width="1"/>
<text x="46" y="108.79999999999998" text-anchor="end" fill="#8b949e" font-family="system-ui,Segoe UI,Helvetica,Arial,sans-serif" font-size="12">240</text>
<line x1="54" y1="48" x2="932" y2="48" stroke="#21262d" stroke-width="1"/>
<text x="46" y="52" text-anchor="end" fill="#8b949e" font-family="system-ui,Segoe UI,Helvetica,Arial,sans-serif" font-size="12">300</text>
<text transform="translate(12,190) rotate(-90)" text-anchor="middle" fill="#8b949e" font-family="system-ui,Segoe UI,Helvetica,Arial,sans-serif" font-size="13">Commits</text>
<rect x="56.36" y="332.00" width="12.16" height="0.00" fill="rgb(248,81,73)" stroke="#30363d" stroke-width="0.45"/>
<rect x="73.25" y="332.00" width="12.16" height="0.00" fill="rgb(248,81,73)" stroke="#30363d" stroke-width="0.45"/>
<rect x="90.13" y="332.00" width="12.16" height="0.00" fill="rgb(248,81,73)" stroke="#30363d" stroke-width="0.45"/>
<rect x="107.02" y="332.00" width="12.16" height="0.00" fill="rgb(248,81,73)" stroke="#30363d" stroke-width="0.45"/>
<rect x="123.90" y="322.53" width="12.16" height="9.47" fill="rgb(242,85,73)" stroke="#30363d" stroke-width="0.45"/>
<rect x="140.79" y="327.27" width="12.16" height="4.73" fill="rgb(245,83,73)" stroke="#30363d" stroke-width="0.45"/>
<rect x="157.67" y="330.11" width="12.16" height="1.89" fill="rgb(247,82,73)" stroke="#30363d" stroke-width="0.45"/>
<rect x="174.56" y="332.00" width="12.16" height="0.00" fill="rgb(248,81,73)" stroke="#30363d" stroke-width="0.45"/>
<rect x="191.44" y="323.48" width="12.16" height="8.52" fill="rgb(242,84,73)" stroke="#30363d" stroke-width="0.45"/>
<rect x="208.33" y="314.01" width="12.16" height="17.99" fill="rgb(236,88,73)" stroke="#30363d" stroke-width="0.45"/>
<rect x="225.21" y="292.24" width="12.16" height="39.76" fill="rgb(221,96,74)" stroke="#30363d" stroke-width="0.45"/>
<rect x="242.09" y="330.11" width="12.16" height="1.89" fill="rgb(247,82,73)" stroke="#30363d" stroke-width="0.45"/>
<rect x="258.98" y="330.11" width="12.16" height="1.89" fill="rgb(247,82,73)" stroke="#30363d" stroke-width="0.45"/>
<rect x="275.86" y="287.51" width="12.16" height="44.49" fill="rgb(218,98,74)" stroke="#30363d" stroke-width="0.45"/>
<rect x="292.75" y="306.44" width="12.16" height="25.56" fill="rgb(231,91,74)" stroke="#30363d" stroke-width="0.45"/>
<rect x="309.63" y="324.43" width="12.16" height="7.57" fill="rgb(243,84,73)" stroke="#30363d" stroke-width="0.45"/>
<rect x="326.52" y="322.53" width="12.16" height="9.47" fill="rgb(242,85,73)" stroke="#30363d" stroke-width="0.45"/>
<rect x="343.40" y="326.32" width="12.16" height="5.68" fill="rgb(244,83,73)" stroke="#30363d" stroke-width="0.45"/>
<rect x="360.29" y="309.28" width="12.16" height="22.72" fill="rgb(233,90,74)" stroke="#30363d" stroke-width="0.45"/>
<rect x="377.17" y="311.17" width="12.16" height="20.83" fill="rgb(234,89,74)" stroke="#30363d" stroke-width="0.45"/>
<rect x="394.06" y="308.33" width="12.16" height="23.67" fill="rgb(232,90,74)" stroke="#30363d" stroke-width="0.45"/>
<rect x="410.94" y="281.83" width="12.16" height="50.17" fill="rgb(214,100,74)" stroke="#30363d" stroke-width="0.45"/>
<rect x="427.83" y="328.21" width="12.16" height="3.79" fill="rgb(245,82,73)" stroke="#30363d" stroke-width="0.45"/>
<rect x="444.71" y="314.01" width="12.16" height="17.99" fill="rgb(236,88,73)" stroke="#30363d" stroke-width="0.45"/>
<rect x="461.59" y="283.72" width="12.16" height="48.28" fill="rgb(215,99,74)" stroke="#30363d" stroke-width="0.45"/>
<rect x="478.48" y="192.84" width="12.16" height="139.16" fill="rgb(153,134,77)" stroke="#30363d" stroke-width="0.45"/>
<rect x="495.36" y="180.53" width="12.16" height="151.47" fill="rgb(145,139,77)" stroke="#30363d" stroke-width="0.45"/>
<rect x="512.25" y="285.61" width="12.16" height="46.39" fill="rgb(216,99,74)" stroke="#30363d" stroke-width="0.45"/>
<rect x="529.13" y="315.91" width="12.16" height="16.09" fill="rgb(237,87,73)" stroke="#30363d" stroke-width="0.45"/>
<rect x="546.02" y="332.00" width="12.16" height="0.00" fill="rgb(248,81,73)" stroke="#30363d" stroke-width="0.45"/>
<rect x="562.90" y="278.99" width="12.16" height="53.01" fill="rgb(212,101,74)" stroke="#30363d" stroke-width="0.45"/>
<rect x="579.79" y="290.35" width="12.16" height="41.65" fill="rgb(220,97,74)" stroke="#30363d" stroke-width="0.45"/>
<rect x="596.67" y="277.09" width="12.16" height="54.91" fill="rgb(211,102,74)" stroke="#30363d" stroke-width="0.45"/>
<rect x="613.56" y="328.21" width="12.16" height="3.79" fill="rgb(245,82,73)" stroke="#30363d" stroke-width="0.45"/>
<rect x="630.44" y="328.21" width="12.16" height="3.79" fill="rgb(245,82,73)" stroke="#30363d" stroke-width="0.45"/>
<rect x="647.33" y="328.21" width="12.16" height="3.79" fill="rgb(245,82,73)" stroke="#30363d" stroke-width="0.45"/>
<rect x="664.21" y="332.00" width="12.16" height="0.00" fill="rgb(248,81,73)" stroke="#30363d" stroke-width="0.45"/>
<rect x="681.09" y="330.11" width="12.16" height="1.89" fill="rgb(247,82,73)" stroke="#30363d" stroke-width="0.45"/>
<rect x="697.98" y="329.16" width="12.16" height="2.84" fill="rgb(246,82,73)" stroke="#30363d" stroke-width="0.45"/>
<rect x="714.86" y="332.00" width="12.16" height="0.00" fill="rgb(248,81,73)" stroke="#30363d" stroke-width="0.45"/>
<rect x="731.75" y="326.32" width="12.16" height="5.68" fill="rgb(244,83,73)" stroke="#30363d" stroke-width="0.45"/>
<rect x="748.63" y="332.00" width="12.16" height="0.00" fill="rgb(248,81,73)" stroke="#30363d" stroke-width="0.45"/>
<rect x="765.52" y="329.16" width="12.16" height="2.84" fill="rgb(246,82,73)" stroke="#30363d" stroke-width="0.45"/>
<rect x="782.40" y="320.64" width="12.16" height="11.36" fill="rgb(240,85,73)" stroke="#30363d" stroke-width="0.45"/>
<rect x="799.29" y="277.09" width="12.16" height="54.91" fill="rgb(211,102,74)" stroke="#30363d" stroke-width="0.45"/>
<rect x="816.17" y="256.27" width="12.16" height="75.73" fill="rgb(196,110,75)" stroke="#30363d" stroke-width="0.45"/>
<rect x="833.06" y="248.69" width="12.16" height="83.31" fill="rgb(191,113,75)" stroke="#30363d" stroke-width="0.45"/>
<rect x="849.94" y="239.23" width="12.16" height="92.77" fill="rgb(185,117,75)" stroke="#30363d" stroke-width="0.45"/>
<rect x="866.83" y="287.51" width="12.16" height="44.49" fill="rgb(218,98,74)" stroke="#30363d" stroke-width="0.45"/>
<rect x="883.71" y="89.65" width="12.16" height="242.35" fill="rgb(83,174,79)" stroke="#30363d" stroke-width="0.45"/>
<rect x="900.59" y="60.31" width="12.16" height="271.69" fill="rgb(63,185,80)" stroke="#30363d" stroke-width="0.45"/>
<rect x="917.48" y="60.31" width="12.16" height="271.69" fill="rgb(63,185,80)" stroke="#30363d" stroke-width="0.45"/>
<g transform="translate(62.44,346) rotate(-42)">
<text text-anchor="end" fill="#8b949e" font-family="system-ui,Segoe UI,Helvetica,Arial,sans-serif" font-size="10">2022-01</text>
</g>
<g transform="translate(113.10,346) rotate(-42)">
<text text-anchor="end" fill="#8b949e" font-family="system-ui,Segoe UI,Helvetica,Arial,sans-serif" font-size="10">2022-04</text>
</g>
<g transform="translate(163.75,346) rotate(-42)">
<text text-anchor="end" fill="#8b949e" font-family="system-ui,Segoe UI,Helvetica,Arial,sans-serif" font-size="10">2022-07</text>
</g>
<g transform="translate(214.40,346) rotate(-42)">
<text text-anchor="end" fill="#8b949e" font-family="system-ui,Segoe UI,Helvetica,Arial,sans-serif" font-size="10">2022-10</text>
</g>
<g transform="translate(265.06,346) rotate(-42)">
<text text-anchor="end" fill="#8b949e" font-family="system-ui,Segoe UI,Helvetica,Arial,sans-serif" font-size="10">2023-01</text>
</g>
<g transform="translate(315.71,346) rotate(-42)">
<text text-anchor="end" fill="#8b949e" font-family="system-ui,Segoe UI,Helvetica,Arial,sans-serif" font-size="10">2023-04</text>
</g>
<g transform="translate(366.37,346) rotate(-42)">
<text text-anchor="end" fill="#8b949e" font-family="system-ui,Segoe UI,Helvetica,Arial,sans-serif" font-size="10">2023-07</text>
</g>
<g transform="translate(417.02,346) rotate(-42)">
<text text-anchor="end" fill="#8b949e" font-family="system-ui,Segoe UI,Helvetica,Arial,sans-serif" font-size="10">2023-10</text>
</g>
<g transform="translate(467.67,346) rotate(-42)">
<text text-anchor="end" fill="#8b949e" font-family="system-ui,Segoe UI,Helvetica,Arial,sans-serif" font-size="10">2024-01</text>
</g>
<g transform="translate(518.33,346) rotate(-42)">
<text text-anchor="end" fill="#8b949e" font-family="system-ui,Segoe UI,Helvetica,Arial,sans-serif" font-size="10">2024-04</text>
</g>
<g transform="translate(568.98,346) rotate(-42)">
<text text-anchor="end" fill="#8b949e" font-family="system-ui,Segoe UI,Helvetica,Arial,sans-serif" font-size="10">2024-07</text>
</g>
<g transform="translate(619.63,346) rotate(-42)">
<text text-anchor="end" fill="#8b949e" font-family="system-ui,Segoe UI,Helvetica,Arial,sans-serif" font-size="10">2024-10</text>
</g>
<g transform="translate(670.29,346) rotate(-42)">
<text text-anchor="end" fill="#8b949e" font-family="system-ui,Segoe UI,Helvetica,Arial,sans-serif" font-size="10">2025-01</text>
</g>
<g transform="translate(720.94,346) rotate(-42)">
<text text-anchor="end" fill="#8b949e" font-family="system-ui,Segoe UI,Helvetica,Arial,sans-serif" font-size="10">2025-04</text>
</g>
<g transform="translate(771.60,346) rotate(-42)">
<text text-anchor="end" fill="#8b949e" font-family="system-ui,Segoe UI,Helvetica,Arial,sans-serif" font-size="10">2025-07</text>
</g>
<g transform="translate(822.25,346) rotate(-42)">
<text text-anchor="end" fill="#8b949e" font-family="system-ui,Segoe UI,Helvetica,Arial,sans-serif" font-size="10">2025-10</text>
</g>
<g transform="translate(872.90,346) rotate(-42)">
<text text-anchor="end" fill="#8b949e" font-family="system-ui,Segoe UI,Helvetica,Arial,sans-serif" font-size="10">2026-01</text>
</g>
<g transform="translate(923.56,346) rotate(-42)">
<text text-anchor="end" fill="#8b949e" font-family="system-ui,Segoe UI,Helvetica,Arial,sans-serif" font-size="10">2026-04</text>
</g>
<text x="480" y="420" text-anchor="middle" fill="#6e7681" font-family="system-ui,Segoe UI,Helvetica,Arial,sans-serif" font-size="11">Bar color: red = fewer commits in this range · green = more · Y-axis is 0 at the baseline.</text>
</svg>
