<svg xmlns="http://www.w3.org/2000/svg" viewBox="0 0 960 440" width="960" height="440" role="img" aria-label="Commits by month (UTC), HyperlinksSpace — 2026-05-03 · 2026-05-03T15:57:04.388Z">
<rect x="0" y="0" width="100%" height="100%" fill="#0d1117"/>
<text x="480" y="28" text-anchor="middle" fill="#e6edf3" font-family="system-ui,Segoe UI,Helvetica,Arial,sans-serif" font-size="16" font-weight="600">Commits by month (UTC), HyperlinksSpace — 2026-05-03 · 2026-05-03T15:57:04.388Z</text>
<line x1="54" y1="332" x2="932" y2="332" stroke="#8b949e" stroke-width="1.5"/>
<line x1="54" y1="48" x2="54" y2="332" stroke="#8b949e" stroke-width="1.5"/>
<text x="46" y="328" text-anchor="end" fill="#8b949e" font-family="system-ui,Segoe UI,Helvetica,Arial,sans-serif" font-size="12">0</text>
<line x1="54" y1="275.2" x2="932" y2="275.2" stroke="#21262d" stroke-width="1"/>
<text x="46" y="279.2" text-anchor="end" fill="#8b949e" font-family="system-ui,Segoe UI,Helvetica,Arial,sans-serif" font-size="12">80</text>
<line x1="54" y1="218.39999999999998" x2="932" y2="218.39999999999998" stroke="#21262d" stroke-width="1"/>
<text x="46" y="222.39999999999998" text-anchor="end" fill="#8b949e" font-family="system-ui,Segoe UI,Helvetica,Arial,sans-serif" font-size="12">160</text>
<line x1="54" y1="161.6" x2="932" y2="161.6" stroke="#21262d" stroke-width="1"/>
<text x="46" y="165.6" text-anchor="end" fill="#8b949e" font-family="system-ui,Segoe UI,Helvetica,Arial,sans-serif" font-size="12">240</text>
<line x1="54" y1="104.79999999999998" x2="932" y2="104.79999999999998" stroke="#21262d" stroke-width="1"/>
<text x="46" y="108.79999999999998" text-anchor="end" fill="#8b949e" font-family="system-ui,Segoe UI,Helvetica,Arial,sans-serif" font-size="12">320</text>
<line x1="54" y1="48" x2="932" y2="48" stroke="#21262d" stroke-width="1"/>
<text x="46" y="52" text-anchor="end" fill="#8b949e" font-family="system-ui,Segoe UI,Helvetica,Arial,sans-serif" font-size="12">400</text>
<text transform="translate(12,190) rotate(-90)" text-anchor="middle" fill="#8b949e" font-family="system-ui,Segoe UI,Helvetica,Arial,sans-serif" font-size="13">Commits</text>
<rect x="56.32" y="332.00" width="11.93" height="0.00" fill="rgb(248,81,73)" stroke="#30363d" stroke-width="0.45"/>
<rect x="72.89" y="332.00" width="11.93" height="0.00" fill="rgb(248,81,73)" stroke="#30363d" stroke-width="0.45"/>
<rect x="89.45" y="332.00" width="11.93" height="0.00" fill="rgb(248,81,73)" stroke="#30363d" stroke-width="0.45"/>
<rect x="106.02" y="332.00" width="11.93" height="0.00" fill="rgb(248,81,73)" stroke="#30363d" stroke-width="0.45"/>
<rect x="122.58" y="324.90" width="11.93" height="7.10" fill="rgb(243,84,73)" stroke="#30363d" stroke-width="0.45"/>
<rect x="139.15" y="328.45" width="11.93" height="3.55" fill="rgb(246,82,73)" stroke="#30363d" stroke-width="0.45"/>
<rect x="155.72" y="330.58" width="11.93" height="1.42" fill="rgb(247,82,73)" stroke="#30363d" stroke-width="0.45"/>
<rect x="172.28" y="332.00" width="11.93" height="0.00" fill="rgb(248,81,73)" stroke="#30363d" stroke-width="0.45"/>
<rect x="188.85" y="325.61" width="11.93" height="6.39" fill="rgb(244,83,73)" stroke="#30363d" stroke-width="0.45"/>
<rect x="205.41" y="318.51" width="11.93" height="13.49" fill="rgb(239,86,73)" stroke="#30363d" stroke-width="0.45"/>
<rect x="221.98" y="302.18" width="11.93" height="29.82" fill="rgb(228,92,74)" stroke="#30363d" stroke-width="0.45"/>
<rect x="238.55" y="330.58" width="11.93" height="1.42" fill="rgb(247,82,73)" stroke="#30363d" stroke-width="0.45"/>
<rect x="255.11" y="330.58" width="11.93" height="1.42" fill="rgb(247,82,73)" stroke="#30363d" stroke-width="0.45"/>
<rect x="271.68" y="298.63" width="11.93" height="33.37" fill="rgb(225,94,74)" stroke="#30363d" stroke-width="0.45"/>
<rect x="288.24" y="312.83" width="11.93" height="19.17" fill="rgb(235,88,73)" stroke="#30363d" stroke-width="0.45"/>
<rect x="304.81" y="326.32" width="11.93" height="5.68" fill="rgb(244,83,73)" stroke="#30363d" stroke-width="0.45"/>
<rect x="321.38" y="324.90" width="11.93" height="7.10" fill="rgb(243,84,73)" stroke="#30363d" stroke-width="0.45"/>
<rect x="337.94" y="327.74" width="11.93" height="4.26" fill="rgb(245,83,73)" stroke="#30363d" stroke-width="0.45"/>
<rect x="354.51" y="314.96" width="11.93" height="17.04" fill="rgb(236,87,73)" stroke="#30363d" stroke-width="0.45"/>
<rect x="371.07" y="316.38" width="11.93" height="15.62" fill="rgb(237,87,73)" stroke="#30363d" stroke-width="0.45"/>
<rect x="387.64" y="314.25" width="11.93" height="17.75" fill="rgb(236,88,73)" stroke="#30363d" stroke-width="0.45"/>
<rect x="404.21" y="294.37" width="11.93" height="37.63" fill="rgb(223,95,74)" stroke="#30363d" stroke-width="0.45"/>
<rect x="420.77" y="329.16" width="11.93" height="2.84" fill="rgb(246,82,73)" stroke="#30363d" stroke-width="0.45"/>
<rect x="437.34" y="318.51" width="11.93" height="13.49" fill="rgb(239,86,73)" stroke="#30363d" stroke-width="0.45"/>
<rect x="453.90" y="295.79" width="11.93" height="36.21" fill="rgb(224,95,74)" stroke="#30363d" stroke-width="0.45"/>
<rect x="470.47" y="227.63" width="11.93" height="104.37" fill="rgb(178,121,76)" stroke="#30363d" stroke-width="0.45"/>
<rect x="487.04" y="218.40" width="11.93" height="113.60" fill="rgb(171,124,76)" stroke="#30363d" stroke-width="0.45"/>
<rect x="503.60" y="297.21" width="11.93" height="34.79" fill="rgb(225,94,74)" stroke="#30363d" stroke-width="0.45"/>
<rect x="520.17" y="319.93" width="11.93" height="12.07" fill="rgb(240,86,73)" stroke="#30363d" stroke-width="0.45"/>
<rect x="536.73" y="332.00" width="11.93" height="0.00" fill="rgb(248,81,73)" stroke="#30363d" stroke-width="0.45"/>
<rect x="553.30" y="292.24" width="11.93" height="39.76" fill="rgb(221,96,74)" stroke="#30363d" stroke-width="0.45"/>
<rect x="569.87" y="300.76" width="11.93" height="31.24" fill="rgb(227,93,74)" stroke="#30363d" stroke-width="0.45"/>
<rect x="586.43" y="290.82" width="11.93" height="41.18" fill="rgb(220,97,74)" stroke="#30363d" stroke-width="0.45"/>
<rect x="603.00" y="329.16" width="11.93" height="2.84" fill="rgb(246,82,73)" stroke="#30363d" stroke-width="0.45"/>
<rect x="619.56" y="329.16" width="11.93" height="2.84" fill="rgb(246,82,73)" stroke="#30363d" stroke-width="0.45"/>
<rect x="636.13" y="329.16" width="11.93" height="2.84" fill="rgb(246,82,73)" stroke="#30363d" stroke-width="0.45"/>
<rect x="652.70" y="332.00" width="11.93" height="0.00" fill="rgb(248,81,73)" stroke="#30363d" stroke-width="0.45"/>
<rect x="669.26" y="330.58" width="11.93" height="1.42" fill="rgb(247,82,73)" stroke="#30363d" stroke-width="0.45"/>
<rect x="685.83" y="329.87" width="11.93" height="2.13" fill="rgb(247,82,73)" stroke="#30363d" stroke-width="0.45"/>
<rect x="702.39" y="332.00" width="11.93" height="0.00" fill="rgb(248,81,73)" stroke="#30363d" stroke-width="0.45"/>
<rect x="718.96" y="327.74" width="11.93" height="4.26" fill="rgb(245,83,73)" stroke="#30363d" stroke-width="0.45"/>
<rect x="735.53" y="332.00" width="11.93" height="0.00" fill="rgb(248,81,73)" stroke="#30363d" stroke-width="0.45"/>
<rect x="752.09" y="329.87" width="11.93" height="2.13" fill="rgb(247,82,73)" stroke="#30363d" stroke-width="0.45"/>
<rect x="768.66" y="323.48" width="11.93" height="8.52" fill="rgb(242,84,73)" stroke="#30363d" stroke-width="0.45"/>
<rect x="785.22" y="290.82" width="11.93" height="41.18" fill="rgb(220,97,74)" stroke="#30363d" stroke-width="0.45"/>
<rect x="801.79" y="275.20" width="11.93" height="56.80" fill="rgb(210,103,74)" stroke="#30363d" stroke-width="0.45"/>
<rect x="818.36" y="269.52" width="11.93" height="62.48" fill="rgb(206,105,75)" stroke="#30363d" stroke-width="0.45"/>
<rect x="834.92" y="262.42" width="11.93" height="69.58" fill="rgb(201,107,75)" stroke="#30363d" stroke-width="0.45"/>
<rect x="851.49" y="298.63" width="11.93" height="33.37" fill="rgb(225,94,74)" stroke="#30363d" stroke-width="0.45"/>
<rect x="868.06" y="150.24" width="11.93" height="181.76" fill="rgb(125,150,78)" stroke="#30363d" stroke-width="0.45"/>
<rect x="884.62" y="128.23" width="11.93" height="203.77" fill="rgb(110,158,78)" stroke="#30363d" stroke-width="0.45"/>
<rect x="901.19" y="57.94" width="11.93" height="274.06" fill="rgb(63,185,80)" stroke="#30363d" stroke-width="0.45"/>
<rect x="917.75" y="317.80" width="11.93" height="14.20" fill="rgb(238,86,73)" stroke="#30363d" stroke-width="0.45"/>
<g transform="translate(62.28,346) rotate(-42)">
<text text-anchor="end" fill="#8b949e" font-family="system-ui,Segoe UI,Helvetica,Arial,sans-serif" font-size="10">2022-01</text>
</g>
<g transform="translate(111.98,346) rotate(-42)">
<text text-anchor="end" fill="#8b949e" font-family="system-ui,Segoe UI,Helvetica,Arial,sans-serif" font-size="10">2022-04</text>
</g>
<g transform="translate(161.68,346) rotate(-42)">
<text text-anchor="end" fill="#8b949e" font-family="system-ui,Segoe UI,Helvetica,Arial,sans-serif" font-size="10">2022-07</text>
</g>
<g transform="translate(211.38,346) rotate(-42)">
<text text-anchor="end" fill="#8b949e" font-family="system-ui,Segoe UI,Helvetica,Arial,sans-serif" font-size="10">2022-10</text>
</g>
<g transform="translate(261.08,346) rotate(-42)">
<text text-anchor="end" fill="#8b949e" font-family="system-ui,Segoe UI,Helvetica,Arial,sans-serif" font-size="10">2023-01</text>
</g>
<g transform="translate(310.77,346) rotate(-42)">
<text text-anchor="end" fill="#8b949e" font-family="system-ui,Segoe UI,Helvetica,Arial,sans-serif" font-size="10">2023-04</text>
</g>
<g transform="translate(360.47,346) rotate(-42)">
<text text-anchor="end" fill="#8b949e" font-family="system-ui,Segoe UI,Helvetica,Arial,sans-serif" font-size="10">2023-07</text>
</g>
<g transform="translate(410.17,346) rotate(-42)">
<text text-anchor="end" fill="#8b949e" font-family="system-ui,Segoe UI,Helvetica,Arial,sans-serif" font-size="10">2023-10</text>
</g>
<g transform="translate(459.87,346) rotate(-42)">
<text text-anchor="end" fill="#8b949e" font-family="system-ui,Segoe UI,Helvetica,Arial,sans-serif" font-size="10">2024-01</text>
</g>
<g transform="translate(509.57,346) rotate(-42)">
<text text-anchor="end" fill="#8b949e" font-family="system-ui,Segoe UI,Helvetica,Arial,sans-serif" font-size="10">2024-04</text>
</g>
<g transform="translate(559.26,346) rotate(-42)">
<text text-anchor="end" fill="#8b949e" font-family="system-ui,Segoe UI,Helvetica,Arial,sans-serif" font-size="10">2024-07</text>
</g>
<g transform="translate(608.96,346) rotate(-42)">
<text text-anchor="end" fill="#8b949e" font-family="system-ui,Segoe UI,Helvetica,Arial,sans-serif" font-size="10">2024-10</text>
</g>
<g transform="translate(658.66,346) rotate(-42)">
<text text-anchor="end" fill="#8b949e" font-family="system-ui,Segoe UI,Helvetica,Arial,sans-serif" font-size="10">2025-01</text>
</g>
<g transform="translate(708.36,346) rotate(-42)">
<text text-anchor="end" fill="#8b949e" font-family="system-ui,Segoe UI,Helvetica,Arial,sans-serif" font-size="10">2025-04</text>
</g>
<g transform="translate(758.06,346) rotate(-42)">
<text text-anchor="end" fill="#8b949e" font-family="system-ui,Segoe UI,Helvetica,Arial,sans-serif" font-size="10">2025-07</text>
</g>
<g transform="translate(807.75,346) rotate(-42)">
<text text-anchor="end" fill="#8b949e" font-family="system-ui,Segoe UI,Helvetica,Arial,sans-serif" font-size="10">2025-10</text>
</g>
<g transform="translate(857.45,346) rotate(-42)">
<text text-anchor="end" fill="#8b949e" font-family="system-ui,Segoe UI,Helvetica,Arial,sans-serif" font-size="10">2026-01</text>
</g>
<g transform="translate(907.15,346) rotate(-42)">
<text text-anchor="end" fill="#8b949e" font-family="system-ui,Segoe UI,Helvetica,Arial,sans-serif" font-size="10">2026-04</text>
</g>
<g transform="translate(923.72,346) rotate(-42)">
<text text-anchor="end" fill="#8b949e" font-family="system-ui,Segoe UI,Helvetica,Arial,sans-serif" font-size="10">2026-05 (Current)</text>
</g>
<text x="480" y="420" text-anchor="middle" fill="#6e7681" font-family="system-ui,Segoe UI,Helvetica,Arial,sans-serif" font-size="11">Bar color: red = fewer commits in this range · green = more · Y-axis is 0 at the baseline.</text>
</svg>
